<svg width="141" height="50" xmlns="http://www.w3.org/2000/svg">
 <style type="text/css">.st0{fill:#FF9900;}
	.st1{fill:#FFFFFF;}</style>

 <g>
  <title>background</title>
  <rect fill="none" id="canvas_background" height="402" width="582" y="-1" x="-1"/>
 </g>
 <g>
  <title>Layer 1</title>
  <path id="svg_1" d="m49,15.1c-0.6,-2.1 -2.2,-3.8 -4.2,-4.3c-3.7,-1 -14.9,-1 -18.8,-1s-15,0 -18.8,1c-2,0.6 -3.7,2.2 -4.2,4.3c-1,3.8 -1,11.8 -1,11.8s0,7.9 1,11.8c0.6,2.1 2.2,3.8 4.2,4.3c3.7,1 13.1,1 18.8,1s15,0 18.8,-1c2.1,-0.6 3.7,-2.2 4.2,-4.3c1,-3.8 1,-11.8 1,-11.8s0,-8 -1,-11.8z" class="st0"/>
  <path id="svg_2" d="m26.2,10.8c0,0 0,0 0,0l0,0c-0.6,0 -1,-0.4 -1,-1c0,0 0,0 0,0c0,-0.5 0.4,-1 1,-1c0,0 0,0 0,0l0.1,0c0.5,0 1,0.4 1,1c0,0 0,0 0,0c-0.1,0.5 -0.5,1 -1.1,1z"/>
  <path id="svg_3" d="m26,44.9c-0.6,0 -15.2,0 -19,-1.1c-2.4,-0.7 -4.3,-2.6 -4.9,-5c-1,-3.9 -1,-11.7 -1,-12s0,-8.1 1,-12c0.6,-2.4 2.5,-4.4 4.9,-5c2.5,-0.7 9.6,-0.9 15.2,-1c0.5,0 1,0.4 1,1c0,0.5 -0.4,1 -1,1c-7.7,0.1 -12.9,0.5 -14.7,1c-1.7,0.5 -3.1,1.9 -3.6,3.6c-0.9,3.6 -0.9,11.4 -0.9,11.5c0,0.1 0,7.9 1,11.5c0.5,1.8 1.8,3.2 3.6,3.6c3.6,1 18.4,1 18.5,1s14.9,0 18.5,-1c1.7,-0.5 3.1,-1.9 3.6,-3.6c1,-3.6 1,-11.4 1,-11.5c0,-0.1 0,-7.9 -1,-11.5c-0.5,-1.8 -1.8,-3.2 -3.6,-3.6c-1.8,-0.5 -6.8,-0.8 -14.3,-0.9c-0.5,0 -1,-0.5 -1,-1s0.5,-1 1,-1c5.4,0.1 12.3,0.3 14.7,1c2.4,0.7 4.3,2.6 4.9,5c1,3.9 1,11.7 1,12s0,8.1 -1,12c-0.6,2.4 -2.5,4.4 -4.9,5c-3.8,1 -18.4,1 -19,1z"/>
  <polygon id="svg_4" points="21.3,20 33.4,27 21.3,34.1 " class="st1"/>
  <path id="svg_5" d="m6.7,34.2c-0.5,0 -1,-0.4 -1,-1l0,-8c0,-0.5 0.4,-1 1,-1s1,0.4 1,1l0,8c-0.1,0.6 -0.5,1 -1,1z"/>
  <path id="svg_6" d="m6.7,21.8c-0.5,0 -1,-0.4 -1,-1l0,0c0,-0.5 0.4,-1 1,-1s1,0.4 1,1l0,0c-0.1,0.6 -0.5,1 -1,1z"/>
  <path id="svg_7" d="m21.3,35c-0.2,0 -0.3,0 -0.5,-0.1c-0.3,-0.2 -0.5,-0.5 -0.5,-0.8l0,-14.1c0,-0.3 0.2,-0.7 0.5,-0.8c0.3,-0.2 0.7,-0.2 1,0l12.1,7c0.3,0.2 0.5,0.5 0.5,0.8s-0.2,0.7 -0.5,0.8l-12.1,7c-0.1,0.2 -0.3,0.2 -0.5,0.2zm1,-13.3l0,10.7l9.2,-5.3l-9.2,-5.4z"/>
  <g id="svg_13"/>
  <g id="svg_14"/>
  <g id="svg_15"/>
  <g id="svg_16"/>
  <g id="svg_17"/>
  <g id="svg_18"/>
  <g id="svg_19"/>
  <g id="svg_20"/>
  <g id="svg_21"/>
  <g id="svg_22"/>
  <g id="svg_23"/>
  <g id="svg_24"/>
  <g id="svg_25"/>
  <g id="svg_26"/>
  <g id="svg_27"/>
  <text font-weight="bold" xml:space="preserve" text-anchor="start" font-family="Helvetica, Arial, sans-serif" font-size="24" id="svg_29" y="35.401563" x="59.5" stroke-width="0" stroke="#000" fill="#000000">酷影吧</text>
 </g>
</svg>